HIERARCHY
ROOT RootJoint
{
    OFFSET   0.000000   0.000000   0.000000
    CHANNELS 6 Xposition Yposition Zposition Xrotation Yrotation Zrotation
    JOINT pelvis_lowerback
    {
        OFFSET   0.000000   0.093605   0.000000
        CHANNELS 3 Xrotation Yrotation Zrotation
        JOINT lowerback_torso
        {
            OFFSET   0.000000   0.100000   0.000000
            CHANNELS 3 Xrotation Yrotation Zrotation
            JOINT torso_head
            {
                OFFSET   0.000000   0.282350   0.000000
                CHANNELS 3 Xrotation Yrotation Zrotation
                End Site
                {
                    OFFSET   0.000000   0.192650   0.000000
                }
            }
            JOINT rTorso_Clavicle
            {
                OFFSET  -0.001000   0.157500   0.000000
                CHANNELS 3 Xrotation Yrotation Zrotation
                JOINT rShoulder
                {
                    OFFSET  -0.117647   0.000000   0.000000
                    CHANNELS 3 Xrotation Yrotation Zrotation
                    JOINT rElbow
                    {
                        OFFSET  -0.245000   0.000000   0.000000
                        CHANNELS 3 Xrotation Yrotation Zrotation
                        JOINT rWrist
                        {
                            OFFSET  -0.240000   0.000000   0.000000
                            CHANNELS 3 Xrotation Yrotation Zrotation
                            End Site
                            {
                                OFFSET  -0.116353  -0.002500   0.000000
                            }
                        }
                    }
                }
            }
            JOINT lTorso_Clavicle
            {
                OFFSET   0.001000   0.157500   0.000000
                CHANNELS 3 Xrotation Yrotation Zrotation
                JOINT lShoulder
                {
                    OFFSET   0.117647   0.000000   0.000000
                    CHANNELS 3 Xrotation Yrotation Zrotation
                    JOINT lElbow
                    {
                        OFFSET   0.245000   0.000000   0.000000
                        CHANNELS 3 Xrotation Yrotation Zrotation
                        JOINT lWrist
                        {
                            OFFSET   0.240000   0.000000   0.000000
                            CHANNELS 3 Xrotation Yrotation Zrotation
                            End Site
                            {
                                OFFSET   0.116353  -0.002500   0.000000
                            }
                        }
                    }
                }
            }
        }
    }
    JOINT rHip
    {
        OFFSET  -0.100000  -0.051395   0.000000
        CHANNELS 3 Xrotation Yrotation Zrotation
        JOINT rKnee
        {
            OFFSET   0.000000  -0.410000   0.000000
            CHANNELS 3 Xrotation Yrotation Zrotation
            JOINT rAnkle
            {
                OFFSET   0.000000  -0.390000   0.000000
                CHANNELS 3 Xrotation Yrotation Zrotation
                JOINT rToeJoint
                {
                    OFFSET   0.000000  -0.050000   0.130000
                    CHANNELS 3 Xrotation Yrotation Zrotation
                    End Site
                    {
                        OFFSET  -0.010000   0.002000   0.060000
                    }
                }
            }
        }
    }
    JOINT lHip
    {
        OFFSET   0.100000  -0.051395   0.000000
        CHANNELS 3 Xrotation Yrotation Zrotation
        JOINT lKnee
        {
            OFFSET   0.000000  -0.410000   0.000000
            CHANNELS 3 Xrotation Yrotation Zrotation
            JOINT lAnkle
            {
                OFFSET   0.000000  -0.390000   0.000000
                CHANNELS 3 Xrotation Yrotation Zrotation
                JOINT lToeJoint
                {
                    OFFSET   0.000000  -0.050000   0.130000
                    CHANNELS 3 Xrotation Yrotation Zrotation
                    End Site
                    {
                        OFFSET   0.010000   0.002000   0.060000
                    }
                }
            }
        }
    }
}
MOTION
Frames: 7
Frame Time:   0.008333
 -2.367239   0.903580   4.669215  -1.131230   2.449597  -0.297778   5.568918  -2.157208  -2.895894   0.662708  -1.816234   1.769562  -1.336768   0.160960   2.577732   2.152548  -1.670074   8.363850   7.085875  10.521787  47.753413  -0.000454  18.626740   0.001249   6.666232   3.243527   4.300921   0.334799  -1.472609  -6.911250   3.588161 -17.154317 -46.091590   0.000181 -18.167465  -0.000212   8.227891  -4.539653  -2.469179 -22.928734   1.142197  -6.350726  18.910059  -0.002655  -0.014303  -5.821133  -5.480104   5.390164  -1.560879  -0.000225   0.000569   5.667779  -3.077391  -1.686094  13.164459   0.000001  -0.000204 -16.522027  -5.128318   2.359837  -1.481349   0.000029  -0.000050
 -2.368141   0.902688   4.674566  -1.149048   2.680426  -0.240161   5.614483  -2.195803  -2.904710   0.691661  -1.829721   1.710862  -1.335226   0.113455   2.487595   2.185816  -1.727341   8.388700   7.187169  10.376535  47.759982  -0.000483  18.300674   0.001328   6.645546   3.269160   4.326606   0.382785  -1.438324  -6.921941   3.646788 -17.216894 -46.140764   0.000142 -18.165132  -0.000169   8.239897  -4.551599  -2.509454 -23.045003   1.188245  -6.470076  17.650730  -0.002389  -0.013850  -5.639056  -5.433474   5.433825  -1.552308  -0.000189   0.000484   6.050371  -3.147580  -1.622875  13.162602   0.000001  -0.000167 -16.823765  -5.293172   2.279217  -1.577306   0.000024  -0.000043
 -2.369063   0.901732   4.679984  -1.165054   2.907663  -0.172666   5.654663  -2.230761  -2.912495   0.723227  -1.843502   1.653133  -1.336444   0.068067   2.400754   2.228075  -1.790024   8.412468   7.292172  10.230833  47.763280  -0.000527  17.987242   0.001388   6.628947   3.245039   4.351785   0.435842  -1.399927  -6.934198   3.708051 -17.271022 -46.189287   0.000108 -18.159771  -0.000133   8.254324  -4.549889  -2.567891 -23.164059   1.236408  -6.606706  16.468200  -0.002196  -0.013261  -5.468954  -5.389912   5.474146  -1.541258  -0.000163   0.000423   6.432452  -3.218695  -1.566266  13.166955  -0.000000  -0.000126 -17.131550  -5.453788   2.196660  -1.678405   0.000020  -0.000037
 -2.370021   0.900739   4.685461  -1.177002   3.126283  -0.099604   5.690782  -2.262479  -2.919468   0.756003  -1.856332   1.599000  -1.338479   0.025816   2.319765   2.274320  -1.855090   8.435546   7.395991  10.089576  47.766367  -0.000580  17.691258   0.001420   6.614851   3.198200   4.378223   0.491297  -1.358361  -6.948041   3.770040 -17.317547 -46.235727   0.000078 -18.152378  -0.000103   8.268656  -4.536392  -2.631552 -23.287079   1.285106  -6.749110  15.361763  -0.002000  -0.012552  -5.310323  -5.349267   5.511401  -1.531326  -0.000140   0.000368   6.810238  -3.287943  -1.511861  13.178768  -0.000004  -0.000082 -17.436096  -5.606752   2.112340  -1.798320   0.000017  -0.000034
 -2.371021   0.899724   4.690990  -1.183022   3.335132  -0.022998   5.723069  -2.291387  -2.925272   0.788757  -1.867960   1.549066  -1.340828  -0.013561   2.244400   2.321626  -1.920016   8.458459   7.496286   9.954670  47.770065  -0.000635  17.413147   0.001427   6.602233   3.141512   4.406102   0.547419  -1.315318  -6.962642   3.831442 -17.358007 -46.279838   0.000054 -18.143696  -0.000079   8.282755  -4.514258  -2.696965 -23.412654   1.333251  -6.891497  14.327321  -0.001779  -0.011764  -5.162400  -5.311312   5.545883  -1.522757  -0.000120   0.000319   7.181349  -3.354455  -1.457602  13.197705  -0.000011  -0.000037 -17.730809  -5.751127   2.026539  -1.945697   0.000014  -0.000033
 -2.372068   0.898694   4.696572  -1.181398   3.534156   0.056129   5.751310  -2.317756  -2.929643   0.820290  -1.878391   1.503410  -1.343322  -0.050293   2.174241   2.368304  -1.983304   8.481232   7.591883   9.826959  47.774548  -0.000687  17.152551   0.001416   6.590593   3.081142   4.435185   0.602920  -1.272086  -6.977362   3.891281 -17.393671 -46.321547   0.000035 -18.134330  -0.000059   8.296561  -4.486419  -2.762724 -23.539126   1.380257  -7.030657  13.360634  -0.001533  -0.010939  -5.024473  -5.275848   5.577836  -1.515566  -0.000103   0.000275   7.544034  -3.417950  -1.402548  13.223018  -0.000020   0.000008 -18.011684  -5.886840   1.939524  -2.125299   0.000012  -0.000035
 -2.373163   0.897655   4.702205  -1.170642   3.723597   0.137268   5.775191  -2.341773  -2.932448   0.849592  -1.887690   1.461914  -1.345917  -0.084571   2.108905   2.413334  -2.044077   8.503641   7.682203   9.706744  47.779706  -0.000734  16.908806   0.001391   6.579650   3.020423   4.465016   0.656886  -1.229558  -6.991728   3.948884 -17.425511 -46.360820   0.000020 -18.124729  -0.000044   8.310015  -4.455215  -2.827875 -23.664913   1.425779  -7.164745  12.457652  -0.001267  -0.010103  -4.895866  -5.242700   5.607471  -1.509679  -0.000087   0.000235   7.897018  -3.478354  -1.346358  13.253864  -0.000030   0.000050 -18.276579  -6.014125   1.851518  -2.339280   0.000011  -0.000041
